<?xml version="1.0" encoding="utf-8"?>
<!-- Generator: Adobe Illustrator 28.3.0, SVG Export Plug-In . SVG Version: 6.00 Build 0)  -->
<svg version="1.1" id="Layer_1" xmlns="http://www.w3.org/2000/svg" xmlns:xlink="http://www.w3.org/1999/xlink" x="0px" y="0px"
	 viewBox="0 0 632.2 124" style="enable-background:new 0 0 632.2 124;" xml:space="preserve">
<style type="text/css">
	.st0{fill-rule:evenodd;clip-rule:evenodd;}
</style>
<g>
	<g>
		<path d="M348.2,100.8c-4.7,5.9-11.4,9.8-19,9.8c-11.1,0-19.5-6.4-19.5-18.1c0-9.2,8.6-15.3,15.8-19.2c-3.5-4.6-8-9.3-8-15.6
			c0-7.9,6.4-13.1,14.3-13.1c7.9,0,14.3,5.2,14.3,13.1c0,8.1-6.2,12.7-12.7,16.7l14.1,17c1.5-3.2,1.9-6,1.9-10.9h5.7
			c0,3.6-0.8,10-3.8,15.5l11.3,13.6h-7.1L348.2,100.8z M328.5,77c-6.2,3.3-13.2,8.2-13.2,16c0,7.6,6.7,12.8,14,12.8
			c6.4,0,11.7-4.1,15.3-9.2L328.5,77z M323.2,57.7c0,4.5,4.4,9.6,7.2,13c4.5-2.8,10-6.8,10-13c0-5.3-3.9-8.3-8.6-8.3
			C327.1,49.4,323.2,52.4,323.2,57.7z"/>
	</g>
	<g>
		<g>
			<path d="M113.6,29.8c0,6.1-5,11.1-11.1,11.1c-6.1,0-11.1-5-11.1-11.1c0-6.1,5-11.1,11.1-11.1C108.7,18.7,113.6,23.6,113.6,29.8"
				/>
		</g>
		<g>
			<path d="M238.5,97.8c0-4.1,2.5-6.9,7.5-6.9c5.8,0,7.5,2.1,9.6,10.4c0.7,2.9,2.4,4.6,7,4.6c6.2,0,9.6-3.4,9.6-8.4
				c0-4.4-4.4-7.9-13-13.3c-9.4-5.8-14.6-11.4-14.6-19.5c0-12.6,14-20.2,26.8-20.2c14.4,0,20,6.2,20,12c0,3.9-2.5,5.9-6.9,5.9
				c-5.4,0-7.1-2.2-9-8.7c-0.8-3.3-2.5-4.6-5.8-4.6c-5.2,0-8.7,2.7-8.7,7.5c0,4.6,4.5,7.5,14.6,13.8c9.4,5.6,13.7,11.6,13.7,18.8
				c0,11.7-12.7,21.3-28.5,21.3C244.8,110.6,238.5,104.1,238.5,97.8"/>
			<path d="M36,63.5c0-4.5,3.6-9.4,10.7-9.4c7.3,0,10.5,4.3,10.5,9.4v31.9c0,4.7-0.2,6.2-0.8,8c-0.5,1.4-1.8,1.8-3.8,2.3
				c-1.2,0.3-1.8,0.6-1.8,1.9c0,0.9,0.4,1.9,1.4,2.1H156c1.8,0,3.5-0.1,3.5-2.2c0-1.6-0.6-1.7-1.9-2.1c-2.7-0.6-5.6-1.4-5.8-4.9
				c-0.3-2.6-0.3-32-0.3-37.2c0-4.6,4-9.3,10.4-9.3c6.1,0,9.7,4,9.7,9.4c0,5.1-0.1,26.1-0.1,33.1c0,5.8,0,7.6-4.7,9.1
				c-1.3,0.4-1.8,0.6-1.8,1.9c0,2.1,1.4,2.2,3.2,2.2h26c3.5,0,4.7-0.3,4.7-2.5c0-1.4-0.9-1.7-2.3-2.1c-4.1-1-4.8-1.9-4.8-5.7
				c0,0-0.1-30.9-0.1-36.1c0-5.4,4.5-9.3,10.2-9.3c0,0,9.5-0.7,9.5,9.8c0,2.2,0.3,33.9,0.3,33.9c0,6.3-1.7,6.7-4.3,7.5
				c-1.4,0.4-2.2,0.6-2.2,1.9c0,2.2,1.6,2.5,2.8,2.5h28.7c1.8-0.1,2.1-0.9,2.1-2.1c0-1.8-0.9-2.1-2.5-2.5c-4.1-1-4.3-3.1-4.3-5.3
				V74.1c0-16.6-0.8-18.8-2.5-21.7c-4.5-8-15.9-8.2-17.1-8.2c-8.8,0-15.5,4.1-19.5,7.9c-2.3,2.2-2.6,2.2-2.8,2.2
				c-0.5,0-0.6-0.1-2.6-2.7c-3.8-5.2-8.9-7.2-15.4-7.2c-7.1,0-12.7,2.7-19,8.4c-0.9,0.9-1.2,0.9-1.6,0.9c-0.6,0-0.6-0.5-0.6-1.8
				v-5.6c0-0.8,0-1.8-0.9-1.8c-0.4,0-0.6,0-3,1.4c-7.4,4.3-15.8,6.5-21.2,7.6c-2.3,0.4-3,0.5-3,2.1c0,1,0.1,1.8,1.7,2.1
				c6.2,1,6.7,1.2,6.8,5.8v35.6c0,0.9,0.1,6.8-8.7,6.8c-8.7,0-9.1-5.3-9.1-7l-0.1-51.8c0-1.6-0.1-2.6-1.2-2.6c-0.3,0-0.5,0-1.8,0.9
				c-6.2,3.6-12.6,6.2-20.1,7.9c-3.9,0.8-4,0.9-4,2.2c0,1,0.3,1.9,1.6,2.2c3.6,0.9,5.1,1.2,5.1,3.4v39c0,0.7,0,5.8-7.4,5.8
				c-7.4,0-7.9-4.4-7.9-5.8V65.6c0-6-0.5-11.4-4-15c-4-4.3-9.3-6.1-15.1-6.1c-7.8,0-14.5,3-20.5,8c-1.7,1.6-1.9,1.6-2.1,1.6
				c-0.6,0-0.6-0.6-0.6-2.1l0.1-22.1V16.3c0-1.6,0-2.7-1-2.7c-0.3,0-0.5,0-1.8,0.9c-6.2,3.6-12.6,6.2-20.1,7.9c-3.9,0.8-4,0.9-4,2.2
				c0,1,0.3,1.9,1.6,2.2c3.6,0.9,4.3,1,4.7,3.4c0.3,1.7,0.3,10.2,0.3,12.9v53.1c0,6.3,0,8-4.3,9.6c-1.4,0.4-2.2,0.6-2.2,1.9
				c0,2.1,1,2.1,3.4,2.1h26.7c2.3,0,4-0.1,4-2.5c0-1.3-1.3-1.6-2.5-1.8c-4.4-1.2-4.8-2.5-4.8-5.7L36,63.5z"/>
		</g>
	</g>
	<g>
		<g>
			<path d="M512.2,88.8c-1.4-0.7-1.8-0.1-2.7,0.9c-5.8,9.1-35.8,21.3-39.4-9c-0.1-0.5,0.1-0.6,1.3-0.9l33.1-8.6
				c5.6-1.4,7.3-3.1,7.3-7.2c0-10.8-12.4-19.9-27.1-19.9c-20.1,0-34.1,14-34.1,34.1c0,19.1,13,31.9,32.4,31.9
				c12.5,0,23.9-6.7,28.8-15.5l0.8-1.7C513.5,91.3,514.1,89.7,512.2,88.8z M475.5,56.8c2.6-2.9,6-4.6,9.3-4.6
				c5.6,0,10.2,4.4,10.2,9.8c0,2.5-1.1,3.6-5,4.9l-19.7,6.2c-0.1,0-0.1,0-0.2,0c0,0-0.1-0.1-0.1-0.2
				C470.5,67.6,471.4,61.5,475.5,56.8z"/>
			<path d="M564.8,44.4c-1.5-0.3-3-0.4-4.6-0.2v0c0,0,0,0,0,0c-0.6,0.1-1.2,0.2-1.8,0.3c-0.2,0-0.4,0.1-0.7,0.2c0,0,0,0-0.1,0
				c-4.5,1.1-8.6,3.6-13.1,7.7c-0.9,0.9-1.2,0.9-1.6,0.9c-0.6,0-0.6-0.5-0.6-1.8V46c0-0.8,0-1.8-0.9-1.8c-0.4,0-0.6,0-3,1.4
				c-7.4,4.3-15.8,6.5-21.3,7.6c-2.3,0.4-3,0.5-3,2.1c0,1,0.1,1.8,1.7,2.1c6.2,1,6.7,1.2,6.8,5.8v23.2v6.9c0,0,0,3.3,0,4.9
				c-0.1,4.3-0.6,5.9-4.7,7.1c-1.3,0.4-1.8,0.6-1.8,1.9c0,2.1,1.4,2.2,3.2,2.2h3.5h22.5h1.9c1.8,0,3.5-0.1,3.5-2.2
				c0-1.6-0.6-1.7-1.9-2.1c-2.7-0.6-5.6-1.4-5.8-4.9c-0.3-2.6-0.3-19.3-0.3-23.2c0-2.2,0-8.9,0-14.1c0-6,6-9.3,10.4-9.3
				c2.3,0,4.8,1.3,6.7,3.4c0.7,0.9,1.2,1.7,1.2,1.7c1.2,2.1,2.5,3.1,4.5,3.5c2.9,0.7,6-0.3,7.6-2.8C576.9,53.9,571.9,46,564.8,44.4z
				"/>
			<g>
				<path d="M601.8,48.8c3.3,0,5,1.3,5.8,4.6c1.8,6.5,3.5,8.7,9,8.7c4.4,0,6.9-2.1,6.9-5.9c0-5.8-5.6-12-20-12
					c-12.8,0-26.8,7.6-26.8,20.2c0,8.1,5.2,13.7,14.7,19.5c8.6,5.5,13,9,13,13.3c0,5-3.4,8.4-9.6,8.4c-4.6,0-6.3-1.7-7-4.6
					c-2.1-8.4-3.8-10.4-9.6-10.4c-5,0-7.5,2.8-7.5,6.9c0,6.3,6.3,12.7,22.2,12.7c15.9,0,28.5-9.6,28.5-21.3
					c0-7.1-4.2-13.2-13.7-18.8c-10.1-6.3-14.6-9.2-14.6-13.8C593.1,51.4,596.6,48.8,601.8,48.8z"/>
			</g>
		</g>
		<path class="st0" d="M449.5,105.1c-4.1-1.1-4.8-2.3-4.9-5.1c0,0,0,0,0,0V65.4c0-6-0.5-11.4-4-15c-4-4.3-9.3-6.1-15.1-6.1
			c-7.8,0-14.5,3-20.5,8c-1.7,1.6-1.9,1.6-2.1,1.6c-0.6,0-0.6-0.6-0.6-2.1l0.1-22.1V16.1c0-1.6,0-2.7-1-2.7c-0.3,0-0.5,0-1.8,0.9
			c-6.2,3.6-12.6,6.2-20.1,7.9c-3.9,0.8-4,0.9-4,2.2c0,1,0.3,1.9,1.6,2.2c3.6,0.9,4.3,1,4.7,3.4c0.3,1.7,0.3,10.2,0.3,12.9V96
			c0,6.3,0,8-4.3,9.6c-1.4,0.4-2.2,0.6-2.2,1.9c0,2.1,1,2.1,3.4,2.1h26.7c2.3,0,4-0.1,4-2.5c0-1.3-1.3-1.6-2.5-1.8
			c-4.4-1.2-4.8-2.5-4.8-5.7l0.5-36.3c0-4.5,3.6-9.4,10.7-9.4c7.3,0,10.5,4.3,10.5,9.4v31.9c0,4.7-0.2,6.2-0.8,8
			c-0.5,1.4-1.8,1.8-3.8,2.3c-1.2,0.3-1.8,0.6-1.8,1.9c0,0.9,0.4,1.9,1.4,2.1h21.7l0,0l7.2,0c2.4,0,4.1-0.3,4.1-2.6
			C452,105.6,450.6,105.4,449.5,105.1z"/>
	</g>
</g>
</svg>
