<?xml version="1.0" encoding="UTF-8" standalone="no"?>
<svg
   width="42"
   height="42"
   viewBox="0 0 42 42"
   fill="none"
   version="1.1"
   id="svg2"
   sodipodi:docname="ganache-icon.svg"
   xml:space="preserve"
   inkscape:version="1.4 (86a8ad7, 2024-10-11)"
   xmlns:inkscape="http://www.inkscape.org/namespaces/inkscape"
   xmlns:sodipodi="http://sodipodi.sourceforge.net/DTD/sodipodi-0.dtd"
   xmlns="http://www.w3.org/2000/svg"
   xmlns:svg="http://www.w3.org/2000/svg"><sodipodi:namedview
     id="namedview2"
     pagecolor="#ffffff"
     bordercolor="#000000"
     borderopacity="0.25"
     inkscape:showpageshadow="2"
     inkscape:pageopacity="0.0"
     inkscape:pagecheckerboard="0"
     inkscape:deskcolor="#d1d1d1"
     inkscape:zoom="9.1704546"
     inkscape:cx="-2.7806691"
     inkscape:cy="42.364312"
     inkscape:window-width="1920"
     inkscape:window-height="1009"
     inkscape:window-x="-8"
     inkscape:window-y="-8"
     inkscape:window-maximized="1"
     inkscape:current-layer="g6" /><defs
     id="defs2"><clipPath
       id="clip0_1817_5717"><rect
         width="41.953499"
         height="22"
         fill="#ffffff"
         id="rect2"
         x="0"
         y="0" /></clipPath></defs><g
     id="g6"
     transform="translate(-194.00001,-373.45133)"><g
       transform="matrix(0.06002919,0,0,0.06002919,200.29186,377.10498)"
       id="g5"><path
         d="m 426.80622,413.61854 c 5.75371,0 7.74041,-1.34168 10.47536,-6.01172 2.73494,-4.67005 1.41907,-12.25565 1.31586,-14.31976 -0.25801,-4.54104 -1.78029,-9.59811 -1.9867,-12.12664 0,-1.54809 0,-11.43001 0.23221,-15.48083 3.45739,-64.09059 30.96164,-79.3392 38.90846,-81.06789 5.06837,-1.49391 10.5037,-1.12789 15.32602,1.03205 v -98.04519 0 -1.39328 -26.00778 c 0,-14.16495 -10.06254,-31.58087 -22.34399,-38.70205 L 267.844,5.3893 C 255.45934,-1.7834802 235.25687,-1.7834802 223.07862,5.3118959 L 22.395587,121.26324 c -12.25565,7.09538 -22.3181829,24.5113 -22.29238153,38.70205 v 25.33694 c -0.01026502,0.14589 -0.01026502,0.29274 0,0.43863 v 36.99916 c 1.16106153,0.64503 2.32212303,1.31587 3.48318463,2.03831 3.8960065,2.58013 7.7404099,3.99921 11.6622179,6.70835 11.175425,6.80997 21.559668,14.84045 30.961641,23.94367 1.831897,1.75449 7.946821,9.4433 9.391698,11.2494 4.440812,6.11964 9.432721,11.81975 14.91319,17.0289 3.027772,2.76073 6.360475,5.1672 9.933527,7.17278 5.908513,3.07036 15.66143,2.37373 20.641096,0.18061 38.23762,-16.56448 62.2329,-8.25644 73.30168,-1.59968 27.37525,16.43547 36.50894,39.42448 39.42449,67.34156 0.38282,3.61594 0.50354,7.25483 0.36122,10.88818 0,6.63095 -0.23221,17.28692 6.75996,19.06721 10.03673,2.58014 12.46206,-8.15323 13.95854,-15.27441 3.37998,-16.12585 24.84672,-26.70441 40.55975,-18.57698 10.83657,5.5989 15.27441,8.77246 25.98198,4.05081 13.39091,-5.90851 20.30567,-20.95071 24.97572,-28.94913 4.61372,-7.78789 11.29361,-14.14629 19.29942,-18.37058 20.89911,-13.02969 73.43069,-9.64971 75.34,48.24856 0,3.14777 0,11.1978 0,16.10005 0,5.5215 0.1806,10.91398 -0.18061,16.61609 -0.23222,3.7928 -0.90305,7.74041 -1.26427,11.63641 -0.10321,0 -2.06411,11.3268 7.19858,11.37841 z"
         fill="#e4a663"
         id="path2" /><path
         d="m 491.02582,285.74696 c -1.41907,-0.43862 -5.54729,-3.14777 -15.27441,-1.03206 -7.97262,1.7287 -35.45107,16.9773 -38.90846,81.0679 -0.20641,3.94761 -0.33541,13.82953 -0.23221,15.48082 0.20641,2.58014 1.72869,7.5856 1.9867,12.12664 0,2.06411 1.57389,9.54651 -1.31586,14.31976 -2.88976,4.77326 -4.72165,6.03752 -10.47536,6.01172 -9.26269,0 -7.30179,-11.3784 -7.30179,-11.3784 0.36122,-3.8444 1.03206,-7.74041 1.26427,-11.63642 0.36122,-5.7021 0.18061,-11.09459 0.18061,-16.61608 0,-4.90226 0,-12.90068 0,-16.10005 -1.9093,-57.89827 -54.44089,-61.27825 -75.33999,-48.24856 -8.00581,4.22428 -14.68571,10.58269 -19.29943,18.37057 -4.67004,7.99843 -11.58481,23.04063 -24.97572,28.94914 -10.70757,4.72165 -15.1454,1.54808 -25.98198,-4.05082 -15.71303,-8.12743 -37.17977,2.45113 -40.55975,18.57699 -1.49648,7.12118 -3.9218,17.82874 -13.95854,15.27441 -6.99217,-1.7803 -6.75995,-12.43626 -6.75995,-19.06721 0.14232,-3.63336 0.0216,-7.27225 -0.36122,-10.88818 -2.91556,-27.91708 -12.04924,-50.9061 -39.42449,-67.34157 -11.06879,-6.65675 -35.06406,-14.96479 -73.30169,1.59969 -5.160271,2.19311 -14.809983,2.88975 -20.641092,-0.18061 -3.573051,-2.00558 -6.905754,-4.41205 -9.933526,-7.17278 -5.480469,-5.20916 -10.472378,-10.90926 -14.913191,-17.02891 -1.444876,-1.80609 -7.5598,-9.4949 -9.391697,-11.24939 C 36.705071,246.43034 26.320828,238.39985 15.145403,231.58989 11.223595,229.00975 7.4049925,227.35846 3.4831846,224.88153 2.3221231,224.15909 1.1610615,223.48826 0,222.84322 v 169.17957 c 0,14.19075 10.062533,31.60668 22.343984,38.70205 L 223.23343,546.831 c 12.28145,7.12117 32.38072,7.12117 44.66217,0 L 468.81085,430.87965 c 12.28145,-7.09538 22.31818,-24.5113 22.29243,-38.70205 z"
         fill="#5e464d"
         id="path3" /><path
         d="m 271.06917,257.31385 c -13.88114,8.02423 -36.61214,8.02423 -50.49328,0 L 15.145403,148.94811 c 2.322123,2.29632 208.320237,121.96306 208.320237,121.96306 12.28145,7.12118 32.38072,7.12118 44.66217,0 0,0 205.7143,-119.30552 208.03643,-121.60184 z"
         fill="#ffffff"
         id="path4" /><path
         d="m 220.24047,20.844319 c 13.90694,-7.946821 36.61214,-7.946821 50.51908,0.0258 l 24.89832,10.320547 C 293.33575,28.894346 267.844,12.381471 267.844,12.381471 c -12.28146,-7.0953765 -32.35492,-7.1211778 -44.63637,0 0,0 -40.71456,23.917867 -43.01088,26.188388 z"
         fill="#ffffff"
         id="path5" /></g></g></svg>
