<svg id="svg" version="1.1" width="642" height="588" xmlns="http://www.w3.org/2000/svg" xmlns:xlink="http://www.w3.org/1999/xlink" ><g id="svgg"><path id="path0" d="M228.037 0.650 C 225.810 0.914,220.343 1.446,215.888 1.831 C 211.433 2.217,205.265 2.806,202.181 3.141 C 199.097 3.475,191.947 4.161,186.293 4.663 C 176.741 5.513,161.840 6.869,138.318 9.031 C 133.006 9.519,123.754 10.359,117.757 10.899 C 111.760 11.438,104.769 12.131,102.222 12.439 L 97.589 12.998 95.136 10.212 C 82.436 -4.217,60.848 11.084,70.125 27.938 L 71.723 30.841 63.983 47.664 C 59.726 56.916,46.512 85.654,34.619 111.526 C 22.725 137.399,12.207 160.249,11.245 162.305 C 10.283 164.361,7.360 170.726,4.748 176.448 L -0.000 186.852 0.007 194.828 L 0.015 202.804 11.503 219.003 C 17.821 227.913,27.962 242.212,34.037 250.779 C 40.113 259.346,50.031 273.364,56.077 281.931 C 62.123 290.498,74.848 308.523,84.355 321.986 C 101.273 345.947,101.625 346.507,100.988 348.466 C 99.269 353.752,100.674 360.684,104.204 364.330 L 106.163 366.355 115.643 366.355 L 125.123 366.355 126.759 364.411 C 127.659 363.341,128.787 361.529,129.265 360.383 C 130.367 357.748,128.558 358.064,157.321 355.471 C 170.685 354.266,189.050 352.586,198.131 351.739 C 207.212 350.891,219.268 349.769,224.922 349.245 C 230.576 348.721,241.231 347.726,248.598 347.033 C 255.966 346.341,266.620 345.362,272.274 344.859 C 298.934 342.486,308.420 341.472,309.531 340.878 C 310.933 340.127,310.107 341.829,328.178 302.492 C 335.893 285.701,345.425 264.953,349.362 256.386 C 353.299 247.819,360.230 232.819,364.766 223.053 C 369.301 213.287,376.039 198.671,379.740 190.575 L 386.468 175.854 389.462 175.499 C 392.912 175.091,395.842 173.751,398.287 171.463 L 400.000 169.860 400.000 160.375 L 400.000 150.890 397.975 149.182 C 395.166 146.813,392.309 145.733,387.610 145.263 L 383.588 144.860 345.978 91.589 C 325.293 62.290,302.282 29.696,294.842 19.159 L 281.315 -0.000 256.701 0.085 C 243.164 0.132,230.265 0.386,228.037 0.650 M247.632 10.537 C 246.994 11.150,236.543 16.979,205.424 34.079 L 185.615 44.964 149.038 34.240 C 108.530 22.364,109.665 22.777,116.013 22.215 C 118.514 21.994,125.187 21.382,130.841 20.856 C 136.495 20.330,147.009 19.362,154.206 18.704 C 161.402 18.047,173.598 16.922,181.308 16.205 C 189.019 15.487,199.673 14.502,204.984 14.016 C 210.296 13.529,220.950 12.553,228.660 11.846 C 236.371 11.139,243.100 10.460,243.614 10.337 C 245.631 9.854,248.210 9.982,247.632 10.537 M279.130 42.056 C 282.951 58.847,286.617 74.969,287.277 77.882 C 287.937 80.794,289.021 85.554,289.685 88.458 C 290.350 91.362,290.783 93.848,290.649 93.983 C 290.514 94.117,281.319 88.566,270.214 81.648 L 250.025 69.068 250.038 64.908 C 250.080 51.018,233.604 43.915,224.346 53.833 C 223.515 54.723,222.455 55.452,221.990 55.452 C 221.019 55.452,202.432 49.992,202.028 49.588 C 201.662 49.221,203.270 48.252,213.707 42.546 C 218.676 39.830,229.330 33.946,237.383 29.470 C 266.765 13.140,271.347 10.692,271.762 11.106 C 271.994 11.337,275.309 25.265,279.130 42.056 M135.219 39.890 C 156.244 46.067,173.533 51.207,173.639 51.313 C 173.876 51.549,125.133 78.365,123.988 78.628 C 123.116 78.829,122.056 77.052,105.720 48.011 C 96.286 31.239,95.058 28.660,96.508 28.660 C 96.774 28.660,114.194 33.714,135.219 39.890 M307.802 57.321 C 317.035 70.351,354.248 123.038,361.471 133.306 C 364.473 137.574,366.828 141.167,366.705 141.291 C 366.581 141.415,357.831 136.136,347.259 129.560 C 336.687 122.984,322.640 114.247,316.044 110.144 C 309.447 106.040,304.050 102.471,304.050 102.211 C 304.050 101.952,302.779 96.161,301.226 89.343 C 290.948 44.220,287.850 30.430,287.850 29.796 C 287.850 29.401,290.701 33.119,294.184 38.059 C 297.667 42.999,303.796 51.667,307.802 57.321 M100.891 63.179 C 107.791 75.482,113.357 85.729,113.260 85.951 C 113.074 86.376,90.809 106.866,88.941 108.332 C 87.905 109.144,87.850 107.457,87.850 74.739 C 87.850 55.792,87.962 40.408,88.098 40.550 C 88.234 40.693,93.991 50.876,100.891 63.179 M78.495 81.153 L 78.484 118.069 51.661 142.679 C 36.909 156.215,23.715 168.241,22.342 169.404 L 19.846 171.519 20.740 169.404 C 21.232 168.241,25.637 158.598,30.529 147.975 C 47.954 110.138,65.319 72.373,71.707 58.420 C 75.274 50.629,78.263 44.250,78.349 44.245 C 78.435 44.241,78.500 60.849,78.495 81.153 M204.834 60.345 C 221.248 65.165,219.932 64.523,220.614 68.044 C 221.247 71.309,222.042 70.487,199.451 89.913 C 188.122 99.654,183.361 103.386,182.634 103.095 C 182.076 102.871,171.386 99.041,158.879 94.585 C 146.371 90.129,135.945 86.300,135.710 86.076 C 135.283 85.670,188.542 56.105,189.720 56.094 C 190.062 56.091,196.864 58.004,204.834 60.345 M267.617 91.239 C 295.244 108.414,293.925 107.543,294.305 108.855 C 294.577 109.788,296.740 119.206,301.859 141.741 C 302.325 143.795,302.607 145.576,302.484 145.699 C 302.298 145.884,278.570 137.561,256.680 129.632 L 251.366 127.708 246.852 103.885 C 241.994 78.240,241.981 78.149,243.146 77.657 C 244.626 77.032,245.915 77.747,267.617 91.239 M230.507 79.046 L 233.911 80.175 236.542 94.137 C 237.988 101.817,239.773 111.324,240.507 115.265 C 241.241 119.206,241.976 122.909,242.139 123.495 C 242.385 124.380,241.295 124.148,235.704 122.126 C 232.001 120.786,221.143 116.871,211.574 113.424 C 194.694 107.343,193.270 106.775,193.821 106.335 C 193.964 106.221,201.451 99.773,210.459 92.005 C 219.467 84.237,226.897 77.890,226.970 77.899 C 227.043 77.909,228.635 78.425,230.507 79.046 M151.083 103.749 C 175.752 112.602,173.928 111.737,171.930 113.637 C 167.425 117.920,138.184 142.753,137.936 142.505 C 137.686 142.255,136.097 134.433,129.652 101.713 C 129.028 98.544,128.705 95.950,128.934 95.950 C 129.164 95.950,139.131 99.460,151.083 103.749 M122.687 125.012 C 125.458 139.111,127.726 150.926,127.726 151.267 C 127.726 151.609,119.597 158.914,109.661 167.502 C 91.955 182.806,91.560 183.103,89.724 182.463 L 87.850 181.810 87.900 153.366 L 87.950 124.922 102.386 111.739 C 110.326 104.488,117.008 98.740,117.235 98.966 C 117.463 99.192,119.916 110.913,122.687 125.012 M212.773 125.843 C 219.626 128.307,229.630 131.903,235.004 133.833 L 244.774 137.341 245.708 142.347 C 246.221 145.100,248.504 157.165,250.780 169.159 C 253.056 181.153,255.039 191.807,255.186 192.835 C 255.436 194.588,254.788 195.266,244.767 203.738 C 238.889 208.707,230.543 215.857,226.220 219.626 C 215.609 228.878,208.893 234.268,207.975 234.268 C 206.191 234.268,153.500 216.536,152.452 215.583 C 151.884 215.067,152.094 216.070,145.202 180.997 C 142.441 166.947,140.183 154.847,140.184 154.108 C 140.186 153.119,145.881 147.847,161.816 134.082 L 183.445 115.399 191.878 118.380 C 196.516 120.020,205.919 123.378,212.773 125.843 M338.040 135.064 C 353.887 144.907,366.782 153.035,366.695 153.128 C 366.395 153.449,315.222 149.744,314.943 149.382 C 314.875 149.293,313.628 143.894,312.171 137.383 C 310.715 130.872,309.016 123.491,308.396 120.981 C 306.985 115.271,303.522 113.626,338.040 135.064 M78.505 157.876 L 78.505 181.796 76.892 182.201 C 74.440 182.817,69.556 188.069,68.674 191.038 C 66.098 199.715,70.503 208.601,78.382 210.621 C 80.234 211.095,81.732 211.863,81.896 212.422 C 82.054 212.957,83.051 218.022,84.112 223.676 C 85.173 229.330,86.194 234.468,86.380 235.094 C 86.634 235.948,84.728 235.180,78.717 232.006 C 63.708 224.080,12.773 195.205,12.773 194.623 C 12.773 194.114,25.079 182.686,62.928 148.052 C 68.583 142.878,74.330 137.593,75.701 136.307 C 77.072 135.022,78.263 133.967,78.349 133.963 C 78.435 133.959,78.505 144.720,78.505 157.876 M276.287 148.598 C 288.239 152.882,298.114 156.386,298.230 156.386 C 299.449 156.386,295.917 159.692,280.924 172.582 C 271.290 180.866,263.192 187.410,262.931 187.124 C 262.095 186.211,253.713 140.810,254.380 140.810 C 254.476 140.810,264.334 144.315,276.287 148.598 M331.464 161.971 C 374.613 164.827,373.438 164.716,373.055 165.911 C 372.922 166.327,359.794 178.254,343.883 192.416 L 314.953 218.165 314.754 213.600 C 314.645 211.089,314.855 200.179,315.222 189.356 C 315.588 178.533,315.888 167.673,315.888 165.222 L 315.888 160.767 319.470 161.090 C 321.441 161.268,326.838 161.664,331.464 161.971 M134.760 186.392 C 137.407 199.811,139.488 210.875,139.384 210.980 C 139.211 211.153,126.892 206.989,106.547 199.882 L 98.765 197.164 98.348 194.252 C 98.119 192.650,97.763 191.066,97.556 190.732 C 97.349 190.398,99.076 188.436,101.394 186.372 C 109.963 178.741,129.294 162.068,129.615 162.031 C 129.797 162.011,132.112 172.973,134.760 186.392 M304.073 198.228 L 303.383 228.349 300.757 230.529 C 299.313 231.729,294.250 236.183,289.506 240.428 L 280.881 248.146 277.524 247.341 C 275.514 246.859,274.042 246.136,273.858 245.542 C 273.194 243.395,265.369 201.718,265.545 201.263 C 265.810 200.576,304.310 167.654,304.558 167.902 C 304.671 168.014,304.452 181.661,304.073 198.228 M366.300 192.570 C 363.533 198.541,359.357 207.632,357.019 212.773 C 354.681 217.913,351.033 225.763,348.912 230.218 C 345.361 237.675,341.849 245.290,320.824 291.113 C 316.778 299.933,313.238 307.558,312.958 308.058 C 312.678 308.559,312.530 305.829,312.630 301.992 C 313.656 262.530,313.975 248.220,313.995 240.719 L 314.019 231.905 342.473 206.608 C 358.123 192.695,371.018 181.402,371.129 181.513 C 371.239 181.624,369.066 186.599,366.300 192.570 M118.828 213.125 C 130.747 217.251,140.803 220.962,141.176 221.372 C 141.999 222.278,151.746 271.514,151.209 272.051 C 150.849 272.412,147.738 270.722,121.184 255.745 C 115.016 252.265,107.129 247.822,103.659 245.871 L 97.349 242.322 96.374 237.205 C 95.838 234.390,94.418 227.040,93.219 220.872 L 91.038 209.657 92.877 208.206 C 93.888 207.407,94.593 206.555,94.443 206.313 C 93.490 204.771,99.716 206.510,118.828 213.125 M260.570 220.611 C 265.672 247.160,265.796 248.027,264.572 248.712 C 263.969 249.049,262.582 250.100,261.489 251.048 L 259.502 252.771 240.810 246.238 C 230.530 242.644,221.978 239.579,221.807 239.426 C 221.185 238.872,256.679 208.064,257.627 208.335 C 257.967 208.432,259.291 213.956,260.570 220.611 M44.237 225.984 C 55.031 232.016,68.910 239.762,75.078 243.198 C 91.171 252.161,89.227 249.925,91.535 262.135 C 92.621 267.883,93.794 273.988,94.142 275.701 C 94.489 277.414,96.702 288.910,99.060 301.246 C 101.418 313.583,103.655 325.045,104.031 326.718 C 104.993 330.995,104.979 330.983,98.810 322.218 C 95.756 317.880,88.997 308.302,83.788 300.935 C 78.580 293.567,65.499 275.062,54.720 259.813 C 43.941 244.564,33.859 230.405,32.317 228.349 C 25.691 219.518,22.190 214.105,23.397 214.560 C 24.064 214.812,33.442 219.953,44.237 225.984 M176.984 233.285 C 199.390 240.886,200.763 241.427,199.647 242.212 C 199.281 242.469,191.089 249.478,181.441 257.788 C 171.794 266.098,163.792 272.897,163.660 272.897 C 163.360 272.897,162.314 267.883,157.942 245.483 C 156.035 235.717,154.312 227.193,154.113 226.541 C 153.858 225.710,154.004 225.450,154.601 225.669 C 155.069 225.840,165.141 229.268,176.984 233.285 M302.240 274.435 C 301.863 290.895,301.555 309.618,301.556 316.044 C 301.557 323.665,301.334 327.726,300.914 327.726 C 300.560 327.726,285.630 322.560,267.737 316.246 C 249.843 309.933,231.838 303.580,227.726 302.129 C 223.614 300.678,220.047 299.319,219.799 299.109 C 219.264 298.654,223.034 296.332,244.829 283.697 C 262.894 273.225,261.933 273.610,265.488 275.424 C 276.939 281.266,288.948 272.584,287.601 259.439 L 287.202 255.539 294.847 248.711 C 301.354 242.900,302.525 242.079,302.709 243.196 C 302.829 243.919,302.617 257.976,302.240 274.435 M235.591 253.583 C 247.328 257.695,257.018 261.059,257.126 261.059 C 257.233 261.059,257.321 262.016,257.321 263.185 C 257.321 265.195,257.040 265.472,252.181 268.254 C 249.354 269.872,238.191 276.345,227.375 282.639 C 216.559 288.932,207.130 294.081,206.422 294.081 C 205.335 294.081,172.154 282.642,171.582 282.070 C 171.247 281.735,212.733 246.196,213.513 246.150 C 213.920 246.126,223.855 249.470,235.591 253.583 M108.177 261.753 C 111.904 263.848,119.299 268.012,124.611 271.006 C 152.523 286.740,151.408 286.053,150.817 287.136 C 146.284 295.436,118.252 338.045,117.220 338.202 C 115.724 338.430,115.959 339.200,113.357 325.545 C 112.313 320.062,109.486 305.343,107.075 292.835 C 100.984 261.241,100.404 257.944,100.934 257.944 C 101.191 257.944,104.450 259.658,108.177 261.753 M177.938 296.615 C 185.789 299.379,192.404 301.832,192.639 302.066 C 193.014 302.440,137.308 335.060,134.380 336.181 C 133.253 336.613,134.404 334.714,150.453 309.657 C 154.294 303.660,158.459 297.142,159.708 295.171 C 162.508 290.754,160.941 290.630,177.938 296.615 M221.720 312.090 C 229.136 314.767,245.066 320.431,257.121 324.678 C 269.176 328.924,278.708 332.572,278.304 332.783 C 277.901 332.994,275.187 333.335,272.274 333.539 C 269.361 333.743,259.408 334.628,250.156 335.504 C 240.903 336.380,228.707 337.521,223.053 338.039 C 217.399 338.557,205.483 339.665,196.573 340.501 C 159.156 344.011,138.754 345.816,138.570 345.631 C 138.462 345.523,152.420 337.314,169.588 327.390 C 186.757 317.466,201.814 308.735,203.050 307.989 C 205.852 306.296,205.386 306.194,221.720 312.090 " stroke="none" fill="#000000" fill-rule="evenodd"></path></g></svg>