<?xml version="1.0" encoding="UTF-8" standalone="no"?>
<svg
   width="22"
   height="22"
   viewBox="0 0 22 22"
   fill="none"
   version="1.1"
   id="svg1"
   sodipodi:docname="hyperledger-icon.svg"
   xml:space="preserve"
   inkscape:version="1.4 (86a8ad7, 2024-10-11)"
   xmlns:inkscape="http://www.inkscape.org/namespaces/inkscape"
   xmlns:sodipodi="http://sodipodi.sourceforge.net/DTD/sodipodi-0.dtd"
   xmlns="http://www.w3.org/2000/svg"
   xmlns:svg="http://www.w3.org/2000/svg"><sodipodi:namedview
     id="namedview1"
     pagecolor="#ffffff"
     bordercolor="#000000"
     borderopacity="0.25"
     inkscape:showpageshadow="2"
     inkscape:pageopacity="0.0"
     inkscape:pagecheckerboard="0"
     inkscape:deskcolor="#d1d1d1"
     inkscape:zoom="6.4844906"
     inkscape:cx="2.0818906"
     inkscape:cy="47.960591"
     inkscape:window-width="1147"
     inkscape:window-height="1032"
     inkscape:window-x="492"
     inkscape:window-y="167"
     inkscape:window-maximized="0"
     inkscape:current-layer="svg1" /><defs
     id="defs1"><clipPath
       id="clip0_1817_5709"><rect
         width="22"
         height="22"
         fill="white"
         id="rect1" /></clipPath></defs><path
     id="path0"
     d="m 12.472077,3.2550417 c -0.09744,0.011553 -0.336642,0.03483 -0.531566,0.051676 -0.194928,0.016891 -0.464804,0.042658 -0.599736,0.057318 -0.134938,0.014616 -0.447783,0.044628 -0.695169,0.066594 -0.41794,0.03719 -1.0699182,0.096521 -2.0991029,0.1911176 -0.2324192,0.021352 -0.6372324,0.058106 -0.8996245,0.081733 -0.2623978,0.023582 -0.5682805,0.053906 -0.679721,0.067382 L 6.7644453,3.7953208 6.6571144,3.6734217 C 6.1014402,3.0420941 5.156876,3.7115742 5.5627817,4.4490069 l 0.06992,0.1270185 -0.3386576,0.7360752 C 5.1077816,5.7169134 4.5296177,6.9743188 4.0092487,8.1063245 3.4888344,9.2383744 3.0286321,10.238156 2.9865398,10.328114 c -0.042115,0.08996 -0.1699826,0.368454 -0.2842704,0.618815 l -0.2077446,0.455217 3.057e-4,0.348983 3.509e-4,0.348982 0.5026456,0.708773 c 0.2764418,0.389849 0.7201491,1.015489 0.9859546,1.39033 0.2658508,0.374842 0.6998048,0.988186 0.9643424,1.363028 0.2645375,0.374841 0.8213099,1.163509 1.2372802,1.75257 0.7402272,1.048393 0.7556298,1.072895 0.7277569,1.158609 -0.075213,0.231284 -0.013755,0.534588 0.1407172,0.694115 l 0.085713,0.0886 h 0.4147872 0.4147929 l 0.071578,-0.08506 c 0.039398,-0.04682 0.088736,-0.126099 0.1096461,-0.176241 0.048229,-0.115292 -0.030907,-0.101466 1.2275666,-0.21492 0.5847302,-0.05272 1.3882769,-0.126231 1.7856069,-0.163291 0.39733,-0.03711 0.924831,-0.0862 1.172217,-0.109122 0.247386,-0.02293 0.713583,-0.06646 1.035921,-0.09679 0.322378,-0.03028 0.788535,-0.07311 1.035921,-0.09512 1.166483,-0.103828 1.581536,-0.148195 1.630144,-0.174185 0.06134,-0.03286 0.02519,0.04161 0.815887,-1.679545 0.33756,-0.734667 0.754628,-1.642477 0.926886,-2.017318 0.172258,-0.374842 0.47552,-1.031153 0.673987,-1.458456 0.198427,-0.427302 0.493243,-1.066812 0.655177,-1.421045 l 0.294374,-0.644105 0.130998,-0.01553 c 0.150952,-0.01785 0.279153,-0.07648 0.386133,-0.176592 l 0.07495,-0.07014 V 10.243669 9.8286612 l -0.0886,-0.074732 C 19.784658,9.6502759 19.659654,9.6030211 19.454049,9.5824567 L 19.278072,9.5648239 17.632481,7.2339994 C 16.727427,5.9520479 15.720602,4.5259267 15.395072,4.06489 l -0.591863,-0.8382848 -1.076966,0.00374 c -0.592298,0.00204 -1.156679,0.013172 -1.254166,0.02472 m 0.857363,0.4325966 c -0.02791,0.02682 -0.485189,0.2818641 -1.846776,1.0300593 L 10.615945,5.1939802 9.0155473,4.7247616 C 7.2431579,4.2051375 7.2928184,4.2232079 7.5705678,4.1986182 c 0.109431,-0.00967 0.4013999,-0.036449 0.6487857,-0.059462 0.2473859,-0.023016 0.7074184,-0.065368 1.0223184,-0.094159 0.3148547,-0.028745 0.8484751,-0.07797 1.1858191,-0.1093415 0.33739,-0.031416 0.803547,-0.074513 1.035921,-0.095778 0.232425,-0.021307 0.698582,-0.064013 1.035927,-0.094947 0.337384,-0.030935 0.631809,-0.060643 0.654299,-0.066025 0.08825,-0.021131 0.201093,-0.015533 0.175802,0.00875 m 1.378167,1.3790863 c 0.167186,0.7346748 0.327585,1.4400785 0.356466,1.567534 0.02887,0.127412 0.0763,0.3356813 0.105361,0.4627434 0.0291,0.1270621 0.04806,0.2358348 0.04217,0.2417417 -0.0059,0.00586 -0.408227,-0.2370162 -0.894117,-0.5397068 l -0.883351,-0.5504269 5.66e-4,-0.1820171 c 0.0017,-0.6077445 -0.719051,-0.9185298 -1.12413,-0.4845763 -0.03634,0.038939 -0.08274,0.070837 -0.103085,0.070837 -0.04251,0 -0.855738,-0.2388972 -0.873416,-0.2565742 -0.01602,-0.016059 0.05434,-0.058455 0.511001,-0.3081158 0.217418,-0.1188362 0.683575,-0.3762849 1.035926,-0.5721286 1.285582,-0.7145043 1.486064,-0.8216144 1.504218,-0.8034999 0.01013,0.01011 0.155197,0.6195141 0.322383,1.3541895 M 8.4109031,4.9719725 C 9.3308322,5.2422415 10.0873,5.4671377 10.091936,5.471776 10.102295,5.4821009 7.9696016,6.6554117 7.9195051,6.6669191 7.8813531,6.6757191 7.8349691,6.5979631 7.1202037,5.3272995 6.707426,4.5934557 6.6536954,4.4806142 6.7171396,4.4806142 c 0.011661,0 0.7738343,0.221133 1.6937635,0.4913583 m 7.5512149,0.7626779 c 0.403981,0.5701156 2.032206,2.875388 2.348238,3.3246551 0.131349,0.1867426 0.234389,0.3439508 0.229012,0.3493765 -0.0057,0.00543 -0.388273,-0.2255522 -0.850842,-0.513279 C 17.225958,8.6076757 16.61134,8.2253962 16.322739,8.0458732 16.034093,7.8663061 15.797955,7.7101478 15.797955,7.6987717 c 0,-0.011333 -0.05559,-0.2647119 -0.123566,-0.5630274 -0.449702,-1.9743166 -0.585251,-2.5776855 -0.585251,-2.6054254 0,-0.017282 0.124743,0.1453946 0.277138,0.3615401 0.152395,0.2161449 0.420561,0.5954056 0.595842,0.8427914 M 6.9089155,5.9909619 C 7.2108188,6.5292683 7.4543498,6.9776167 7.45011,6.9873303 7.44196,7.0059253 6.4677838,7.9024474 6.3860502,7.9665906 c -0.045342,0.035526 -0.047719,-0.038283 -0.047719,-1.4698312 0,-0.829009 0.00509,-1.5021223 0.010868,-1.4959092 0.00594,0.00625 0.2578467,0.4518048 0.5597499,0.9901117 M 5.9290288,6.7773979 5.9285476,8.3926244 4.7549323,9.4694125 C 4.1094751,10.061668 3.5321829,10.587855 3.4721068,10.638741 l -0.1092102,0.09254 0.039115,-0.09254 C 3.4235216,10.587852 3.6162772,10.165934 3.830322,9.7011343 4.5927389,8.0456106 5.3525293,6.3932369 5.6320278,5.7827362 5.7880966,5.4418478 5.9188795,5.1627404 5.9226438,5.1625219 c 0.00396,-1.749e-4 0.00662,0.7264929 0.0064,1.614876 M 11.456891,5.8669628 c 0.718179,0.2108947 0.6606,0.1828044 0.690442,0.3368626 0.02768,0.1428575 0.06248,0.1068916 -0.925969,0.9568584 C 10.725676,7.5868925 10.517359,7.7501831 10.485552,7.7374507 10.461155,7.7276521 9.9934072,7.5600713 9.4461729,7.3651033 8.8988934,7.1701348 8.4427157,7.0026004 8.4324304,6.9927996 8.4137504,6.9750366 10.74405,5.6814452 10.79559,5.680964 c 0.01494,-1.313e-4 0.312579,0.08357 0.661301,0.1859988 m 2.747012,1.3517389 c 1.208796,0.7514766 1.151086,0.7133671 1.167711,0.7707726 0.01189,0.040824 0.106544,0.4528984 0.330518,1.438897 0.02038,0.089871 0.03272,0.1677971 0.02734,0.1731786 -0.0082,0.00809 -1.046337,-0.3560707 -2.004113,-0.7029968 L 13.49285,8.8143702 13.295346,7.7720161 C 13.08279,6.6499424 13.082218,6.6459607 13.133192,6.624434 c 0.06476,-0.027347 0.121154,0.00396 1.070705,0.5942677 m -1.623713,-0.5334937 0.148942,0.0494 0.115114,0.6108947 c 0.06327,0.3360316 0.141368,0.7520019 0.173487,0.9244367 0.0321,0.1724348 0.06428,0.3344563 0.07141,0.3600961 0.01075,0.038724 -0.03691,0.028569 -0.281559,-0.059899 -0.162025,-0.058631 -0.637103,-0.2299277 -1.05579,-0.380748 -0.738569,-0.2660687 -0.800875,-0.2909211 -0.776767,-0.3101728 0.0063,-0.00498 0.333846,-0.2871143 0.727983,-0.6269963 0.394138,-0.339882 0.719227,-0.6175895 0.722425,-0.6171956 0.0034,4.376e-4 0.07285,0.023016 0.154756,0.050187 M 9.1050586,7.7660685 C 10.18443,8.1534238 10.104621,8.1155763 10.017199,8.1987093 9.8200905,8.3861079 8.5406727,9.4726532 8.5298269,9.4618024 8.518902,9.4508661 8.4493613,9.1086191 8.1673665,7.6769851 8.1400823,7.5383283 8.1259308,7.4248302 8.13595,7.4248302 c 0.010076,0 0.4461584,0.153577 0.9691086,0.3412383 M 7.8626159,8.696412 c 0.1212447,0.6168887 0.220481,1.1338438 0.220481,1.148764 0,0.014967 -0.3556791,0.334587 -0.79042,0.710348 -0.7747117,0.669612 -0.7919936,0.682607 -0.8723234,0.654605 l -0.082,-0.02857 0.00226,-1.244542 0.00226,-1.2445416 0.631634,-0.5768104 c 0.3474089,-0.3172605 0.639774,-0.5687594 0.6497084,-0.5588708 0.00996,0.00989 0.1173049,0.52273 0.238544,1.1396193 m 3.9416331,0.036358 c 0.299849,0.1078098 0.737561,0.2651494 0.972698,0.3495951 l 0.427478,0.1534892 0.04087,0.2190329 c 0.02248,0.120455 0.122346,0.6483483 0.221933,1.1731353 0.09958,0.524786 0.186347,0.990943 0.192778,1.035922 0.01093,0.0767 -0.01743,0.106366 -0.455872,0.47705 -0.25719,0.217415 -0.622362,0.530257 -0.811506,0.695166 -0.464278,0.404812 -0.758132,0.640647 -0.798294,0.640647 -0.07806,0 -2.3835093,-0.775848 -2.4293603,-0.817545 -0.02485,-0.02258 -0.01568,0.02131 -0.3172151,-1.513279 C 8.7270937,10.531241 8.628299,10.001816 8.6283443,9.969482 8.6284292,9.9262066 8.8776095,9.6955371 9.574833,9.0932624 l 0.946353,-0.8174578 0.368981,0.1304307 c 0.202934,0.071757 0.614353,0.2186832 0.914241,0.3265371 m 5.480947,0.4034564 c 0.693368,0.4306714 1.257579,0.7863046 1.253769,0.790374 -0.01313,0.014044 -2.252155,-0.1480641 -2.264359,-0.1639031 -0.0028,-0.00391 -0.05753,-0.2401221 -0.121284,-0.525005 C 16.089771,8.9528113 16.015435,8.6298624 15.988304,8.5200397 15.926569,8.270204 15.775052,8.1982281 17.285355,9.1362288 M 5.9296348,10.134347 v 1.046598 l -0.070576,0.01772 c -0.1072856,0.02695 -0.3209795,0.256749 -0.3595736,0.386655 -0.1127085,0.379654 0.08003,0.768453 0.4247669,0.856837 0.081032,0.02074 0.146576,0.05434 0.1537536,0.0788 0.00691,0.02341 0.050549,0.245023 0.096955,0.492408 0.046417,0.247386 0.091096,0.472195 0.099236,0.499585 0.011095,0.03737 -0.07228,0.0037 -0.3352896,-0.135113 -0.6567049,-0.346795 -2.8853172,-1.610194 -2.8853172,-1.63566 0,-0.02227 0.5384376,-0.522292 2.1944845,-2.0376714 C 5.4955055,9.4781207 5.7469613,9.2468805 5.8069469,9.1906123 5.8669319,9.1343853 5.919044,9.0882282 5.9228083,9.0880527 c 0.00396,-1.749e-4 0.00685,0.4706633 0.00685,1.0462923 M 14.583431,9.7283941 c 0.52295,0.1874427 0.955019,0.3407569 0.960097,0.3407569 0.05332,0 -0.101206,0.144651 -0.757209,0.708642 -0.42153,0.362458 -0.775851,0.648785 -0.787268,0.636271 -0.03657,-0.03995 -0.403325,-2.026427 -0.374144,-2.026427 0.004,0 0.435527,0.1533579 0.958523,0.3407566 m 2.414218,0.5851234 c 1.887945,0.124962 1.836536,0.120105 1.819775,0.172391 -0.0058,0.0182 -0.580219,0.540057 -1.27639,1.159703 l -1.265809,1.126624 -0.0087,-0.199737 c -0.0045,-0.109867 0.0045,-0.587224 0.02049,-1.060775 0.01602,-0.47355 0.02915,-0.94872 0.02915,-1.055961 v -0.194925 l 0.156731,0.01413 c 0.08624,0.0078 0.322378,0.02512 0.524784,0.03855 M 8.391057,11.38204 c 0.1158218,0.587136 0.2068728,1.071232 0.2023217,1.075826 -0.00759,0.0076 -0.5465777,-0.174622 -1.4367547,-0.485583 L 6.8161324,11.853359 6.7979052,11.725947 c -0.010019,-0.07009 -0.025586,-0.139401 -0.034643,-0.154015 -0.00906,-0.01462 0.066507,-0.100459 0.1679278,-0.190767 0.3749251,-0.333888 1.2207399,-1.0634 1.2347838,-1.065019 0.00798,-8.49e-4 0.1092556,0.478757 0.2251114,1.065894 m 7.4081428,0.517873 -0.03017,1.317917 -0.114899,0.09538 c -0.06318,0.0525 -0.284706,0.247386 -0.492275,0.433122 l -0.377382,0.337694 -0.146882,-0.03522 c -0.08794,-0.02109 -0.15235,-0.05272 -0.160399,-0.07871 -0.02904,-0.09394 -0.371433,-1.91748 -0.363729,-1.937387 0.0116,-0.03006 1.696124,-1.470532 1.706976,-1.459681 0.0051,0.0049 -0.0045,0.602013 -0.02123,1.326887 m 2.722682,-0.247561 c -0.121064,0.261256 -0.303783,0.659024 -0.406082,0.883964 -0.102298,0.224897 -0.261911,0.568366 -0.354711,0.763291 -0.155372,0.326273 -0.309035,0.659461 -1.22897,2.664405 -0.177025,0.385911 -0.331916,0.719537 -0.344165,0.741413 -0.01223,0.02192 -0.01874,-0.09753 -0.01438,-0.265412 0.04489,-1.726624 0.05885,-2.352745 0.05973,-2.680945 l 0.0011,-0.385649 1.244978,-1.106847 c 0.684754,-0.608751 1.248959,-1.102866 1.253815,-1.098009 0.0051,0.0049 -0.09026,0.222533 -0.211288,0.483789 M 7.6940655,12.55172 c 0.5215068,0.180529 0.961495,0.3429 0.9778146,0.36084 0.036002,0.03964 0.4624835,2.193918 0.4389863,2.217413 -0.015737,0.01579 -0.1518686,-0.05815 -1.3137155,-0.713454 C 7.5272755,14.264255 7.1821874,14.069856 7.0303584,13.984491 L 6.7542732,13.829208 6.7115922,13.605319 C 6.6881572,13.48215 6.6260093,13.160558 6.5735468,12.890682 l -0.095427,-0.490702 0.080466,-0.06349 c 0.044209,-0.03496 0.075082,-0.07224 0.068516,-0.08283 -0.041719,-0.06747 0.2307154,0.0086 1.0669467,0.298053 m 6.2017925,0.327543 c 0.223232,1.161627 0.22866,1.199562 0.175105,1.229534 -0.02638,0.01475 -0.08707,0.06073 -0.134892,0.102209 l -0.08694,0.07539 -0.817851,-0.285846 c -0.449792,-0.157252 -0.823976,-0.291359 -0.831459,-0.298053 -0.02723,-0.02424 1.52579,-1.372216 1.567271,-1.360358 0.01489,0.0042 0.07281,0.245942 0.128768,0.537125 m -9.465454,0.235091 c 0.4722821,0.263924 1.0795416,0.602844 1.349417,0.753182 0.7041352,0.392168 0.6190788,0.294334 0.7200642,0.828572 0.047493,0.251499 0.09884,0.518617 0.114067,0.593568 0.01517,0.07495 0.1120123,0.577948 0.2151827,1.117698 0.1031703,0.539795 0.201048,1.041304 0.2175034,1.114505 0.042115,0.187136 0.041492,0.186611 -0.2284454,-0.196893 C 6.6845514,17.13518 6.3888183,16.716103 6.1609049,16.393767 5.9330312,16.071387 5.3606864,15.261717 4.889061,14.594511 4.4174356,13.927305 3.9763038,13.30779 3.908835,13.217832 3.6189209,12.83144 3.465739,12.594599 3.5185526,12.614507 c 0.029152,0.01103 0.4395071,0.235966 0.9118344,0.499847 m 5.808227,0.319448 c 0.98035,0.332575 1.040426,0.356246 0.991598,0.390593 -0.01602,0.01124 -0.37445,0.317917 -0.79659,0.681514 -0.422095,0.363596 -0.7722155,0.66108 -0.7779893,0.66108 -0.013133,0 -0.058893,-0.219382 -0.2501879,-1.199474 -0.083438,-0.427303 -0.1588255,-0.800263 -0.1675315,-0.82879 -0.011151,-0.03636 -0.00453,-0.04774 0.02134,-0.03815 0.020491,0.0075 0.4611646,0.157471 0.9793482,0.333231 m 5.480461,1.80048 c -0.01647,0.720193 -0.03,1.539401 -0.02994,1.820565 4.5e-5,0.33345 -0.0097,0.511135 -0.02808,0.511135 -0.01551,0 -0.66874,-0.226033 -1.451631,-0.502297 -0.782937,-0.276219 -1.57073,-0.554189 -1.750647,-0.617677 -0.179917,-0.06349 -0.335986,-0.122948 -0.346837,-0.132137 -0.02338,-0.01991 0.141543,-0.121505 1.095164,-0.674338 0.79042,-0.458193 0.748373,-0.441348 0.903916,-0.361977 0.501026,0.255611 1.026473,-0.124262 0.967535,-0.69941 l -0.01743,-0.170641 0.334502,-0.298753 c 0.284707,-0.254255 0.335941,-0.290177 0.34399,-0.241304 0.0051,0.03163 -0.004,0.646686 -0.02049,1.366834 m -2.916168,-0.91236 c 0.513542,0.179917 0.937523,0.327106 0.942249,0.327106 0.0045,0 0.0085,0.04187 0.0085,0.09302 0,0.08795 -0.01228,0.100065 -0.224896,0.22179 -0.123696,0.07079 -0.612122,0.354014 -1.085366,0.629402 -0.473245,0.275344 -0.885802,0.500635 -0.916777,0.500635 -0.04755,0 -1.499366,-0.500503 -1.524397,-0.525531 -0.014661,-0.01466 1.800528,-1.569634 1.834656,-1.571647 0.01783,-0.0011 0.452504,0.145264 0.966001,0.325224 m -5.5748852,0.357471 c 0.163071,0.09166 0.4866374,0.273857 0.7190566,0.404857 1.2212663,0.688427 1.1724775,0.658368 1.1466198,0.705753 -0.1983366,0.363159 -1.4248503,2.227478 -1.470005,2.234347 -0.065459,0.01 -0.055191,0.04367 -0.169026,-0.553795 C 7.4090392,17.230652 7.2853489,16.586635 7.1798577,16.039359 6.913356,14.656992 6.8879738,14.512734 6.9111653,14.512734 c 0.011265,0 0.1538385,0.07499 0.3169095,0.16666 m 3.0523342,1.525355 c 0.343508,0.120937 0.632947,0.228266 0.643227,0.238504 0.01642,0.01636 -2.4209605,1.443623 -2.5490716,1.492671 -0.049304,0.0189 0.00113,-0.06419 0.7032578,-1.160534 0.1680637,-0.262393 0.3502959,-0.547582 0.4049491,-0.633822 0.122507,-0.193261 0.053946,-0.198687 0.7976377,0.06318 m 1.915642,0.677095 c 0.324478,0.11713 1.021481,0.364953 1.548937,0.550777 0.527456,0.18578 0.944519,0.345394 0.926841,0.354627 -0.01761,0.0092 -0.136382,0.02415 -0.263836,0.03308 -0.127454,0.0089 -0.562942,0.04765 -0.967756,0.08598 -0.404852,0.03833 -0.938479,0.08825 -1.185865,0.110917 -0.247385,0.02266 -0.768756,0.07114 -1.158608,0.107722 -1.6371465,0.153577 -2.5298198,0.232553 -2.5378692,0.224458 -0.00453,-0.0047 0.6059971,-0.363902 1.3571663,-0.798118 0.7512149,-0.434216 1.4100199,-0.816232 1.4641009,-0.848873 0.122598,-0.07408 0.102208,-0.07854 0.816889,0.179435"
     stroke="none"
     fill="#000000"
     fill-rule="evenodd"
     style="stroke-width:0.0437541" /></svg>
