<?xml version="1.0" encoding="UTF-8" standalone="no"?>
<svg
   width="32"
   height="32"
   viewBox="0 0 32 32"
   fill="none"
   version="1.1"
   id="svg3"
   sodipodi:docname="ipfs-icon.svg"
   xml:space="preserve"
   inkscape:version="1.4 (86a8ad7, 2024-10-11)"
   xmlns:inkscape="http://www.inkscape.org/namespaces/inkscape"
   xmlns:sodipodi="http://sodipodi.sourceforge.net/DTD/sodipodi-0.dtd"
   xmlns="http://www.w3.org/2000/svg"
   xmlns:svg="http://www.w3.org/2000/svg"><sodipodi:namedview
     id="namedview3"
     pagecolor="#ffffff"
     bordercolor="#000000"
     borderopacity="0.25"
     inkscape:showpageshadow="2"
     inkscape:pageopacity="0.0"
     inkscape:pagecheckerboard="0"
     inkscape:deskcolor="#d1d1d1"
     inkscape:zoom="9.1704546"
     inkscape:cx="29.060719"
     inkscape:cy="28.515489"
     inkscape:window-width="1920"
     inkscape:window-height="1009"
     inkscape:window-x="-8"
     inkscape:window-y="-8"
     inkscape:window-maximized="1"
     inkscape:current-layer="svg3" /><defs
     id="defs3"><clipPath
       id="clip0_1817_5722"><rect
         width="32"
         height="22"
         fill="#ffffff"
         id="rect3"
         x="0"
         y="0" /></clipPath></defs><g
     style="fill:#000000"
     id="g4"
     transform="matrix(1.0967791,0,0,1.0967791,3.568769,2.8119025)"><path
       d="M 12,0 1.608,6 V 18 L 12,24 22.392,18 V 6 Z m -1.073,1.445 h 0.001 a 1.8,1.8 0 0 0 2.138,0 l 7.534,4.35 a 1.794,1.794 0 0 0 0,0.403 l -7.535,4.35 a 1.8,1.8 0 0 0 -2.137,0 L 3.392,6.198 a 1.795,1.795 0 0 0 0,-0.402 z M 21.324,7.4 c 0.109,0.08 0.226,0.147 0.349,0.201 v 8.7 a 1.8,1.8 0 0 0 -1.069,1.852 l -7.535,4.35 a 1.8,1.8 0 0 0 -0.349,-0.2 L 12.711,13.65 a 1.8,1.8 0 0 0 1.07,-1.851 z m -18.648,0.048 7.535,4.35 a 1.8,1.8 0 0 0 1.069,1.852 v 8.7 c -0.124,0.054 -0.24,0.122 -0.349,0.202 L 3.396,18.202 A 1.8,1.8 0 0 0 2.327,16.35 v -8.7 a 1.85,1.85 0 0 0 0.35,-0.202 z"
       id="path1-1" /></g></svg>
