<?xml version="1.0" encoding="UTF-8" standalone="no"?>
<svg
   width="24"
   height="22"
   viewBox="0 0 24 22"
   fill="none"
   version="1.1"
   id="svg4"
   sodipodi:docname="node-icon.svg"
   xml:space="preserve"
   inkscape:version="1.4 (86a8ad7, 2024-10-11)"
   xmlns:inkscape="http://www.inkscape.org/namespaces/inkscape"
   xmlns:sodipodi="http://sodipodi.sourceforge.net/DTD/sodipodi-0.dtd"
   xmlns="http://www.w3.org/2000/svg"
   xmlns:svg="http://www.w3.org/2000/svg"><sodipodi:namedview
     id="namedview4"
     pagecolor="#ffffff"
     bordercolor="#000000"
     borderopacity="0.25"
     inkscape:showpageshadow="2"
     inkscape:pageopacity="0.0"
     inkscape:pagecheckerboard="0"
     inkscape:deskcolor="#d1d1d1"
     inkscape:zoom="25.937962"
     inkscape:cx="18.35148"
     inkscape:cy="11.700996"
     inkscape:window-width="1920"
     inkscape:window-height="1009"
     inkscape:window-x="-8"
     inkscape:window-y="-8"
     inkscape:window-maximized="1"
     inkscape:current-layer="svg4" /><defs
     id="defs4"><clipPath
       id="clip0_1817_5728"><rect
         width="23.2941"
         height="22"
         fill="white"
         id="rect4" /></clipPath></defs><path
     d="m 12.197097,19.720836 c -0.247842,0 -0.47916,-0.06609 -0.693958,-0.181749 L 9.3056064,18.233783 C 8.97515,18.052033 9.1403782,17.985942 9.2395154,17.952895 c 0.446116,-0.148703 0.528729,-0.18175 0.9913666,-0.446116 0.04957,-0.03304 0.115662,-0.01653 0.165229,0.01653 l 1.685328,1.007892 c 0.06609,0.03304 0.148705,0.03304 0.198273,0 l 6.592601,-3.816772 c 0.06609,-0.03304 0.09914,-0.09913 0.09914,-0.18175 V 6.9156659 c 0,-0.082616 -0.03304,-0.1487061 -0.09914,-0.1817499 L 12.279712,2.9336695 c -0.06609,-0.03305 -0.148704,-0.03305 -0.198273,0 L 5.4888358,6.733916 c -0.066091,0.033041 -0.099135,0.1156598 -0.099135,0.1817499 v 7.6170151 c 0,0.06609 0.033045,0.148705 0.099135,0.18175 l 1.8009879,1.040937 c 0.9748449,0.495685 1.586189,-0.08262 1.586189,-0.660913 V 7.576579 c 0,-0.099137 0.082615,-0.1982749 0.1982725,-0.1982749 h 0.8426653 c 0.099134,0 0.1982745,0.082616 0.1982745,0.1982749 v 7.517876 c 0,1.305304 -0.7104813,2.065352 -1.9496938,2.065352 -0.3800229,0 -0.6774349,0 -1.520098,-0.413069 l -1.734895,-0.99137 C 4.4809466,15.507527 4.2165811,15.044887 4.2165811,14.549205 V 6.9321883 c 0,-0.4956846 0.2643655,-0.9583228 0.6939571,-1.2061638 L 11.503139,1.9092539 c 0.413072,-0.2313187 0.974846,-0.2313187 1.387919,0 l 6.592599,3.8167706 c 0.429591,0.247841 0.693957,0.7104792 0.693957,1.2061638 v 7.6170167 c 0,0.495682 -0.264366,0.958322 -0.693957,1.206163 l -6.592599,3.816769 c -0.214799,0.09914 -0.462642,0.148706 -0.693961,0.148706 z m 2.032305,-5.237731 c -2.891491,0 -3.486311,-1.321823 -3.486311,-2.445376 0,-0.09914 0.08262,-0.198273 0.198273,-0.198273 h 0.859186 c 0.09914,0 0.18175,0.06609 0.18175,0.165229 0.132184,0.875709 0.512209,1.305301 2.263626,1.305301 1.387916,0 1.982738,-0.313932 1.982738,-1.05746 0,-0.429592 -0.16523,-0.743526 -2.329717,-0.958323 -1.800986,-0.18175 -2.924536,-0.578297 -2.924536,-2.0157817 0,-1.3383476 1.12355,-2.1314428 3.007151,-2.1314428 2.114918,0 3.155854,0.7270042 3.288038,2.3131928 0,0.049566 -0.01653,0.099137 -0.04957,0.1487061 -0.03305,0.033041 -0.08262,0.066091 -0.132182,0.066091 h -0.859185 c -0.08262,0 -0.165231,-0.066091 -0.181753,-0.1487062 -0.198272,-0.9087541 -0.710479,-1.2061638 -2.065349,-1.2061638 -1.5201,0 -1.70185,0.5287293 -1.70185,0.9252764 0,0.4791623 0.214796,0.6278684 2.263624,0.8922332 2.032306,0.264364 2.990629,0.644389 2.990629,2.065349 -0.01653,1.454007 -1.206166,2.280148 -3.304564,2.280148 z"
     fill="#539e43"
     id="path1-7"
     style="stroke-width:0.0623479" /></svg>
