<?xml version="1.0" encoding="UTF-8" standalone="no"?>
<svg
   width="25"
   height="22"
   viewBox="0 0 25 22"
   fill="none"
   version="1.1"
   id="svg2"
   sodipodi:docname="truffle-icon.svg"
   xml:space="preserve"
   inkscape:version="1.4 (86a8ad7, 2024-10-11)"
   xmlns:inkscape="http://www.inkscape.org/namespaces/inkscape"
   xmlns:sodipodi="http://sodipodi.sourceforge.net/DTD/sodipodi-0.dtd"
   xmlns="http://www.w3.org/2000/svg"
   xmlns:svg="http://www.w3.org/2000/svg"><defs
     id="defs2" /><sodipodi:namedview
     id="namedview2"
     pagecolor="#ffffff"
     bordercolor="#000000"
     borderopacity="0.25"
     inkscape:showpageshadow="2"
     inkscape:pageopacity="0.0"
     inkscape:pagecheckerboard="0"
     inkscape:deskcolor="#d1d1d1"
     inkscape:zoom="9.1704546"
     inkscape:cx="6.3246592"
     inkscape:cy="-3.9801735"
     inkscape:window-width="1920"
     inkscape:window-height="1009"
     inkscape:window-x="-8"
     inkscape:window-y="-8"
     inkscape:window-maximized="1"
     inkscape:current-layer="svg2" /><style
     type="text/css"
     id="style1"> .st0{fill:#5E464D;} .st1{fill:#FFFFFF;} .st2{fill:#3FE0C5;} </style><g
     id="Layer_8"
     transform="matrix(0.02355589,0,0,0.02355589,-7.3855732,-3.1691549)"> <polygon
   id="Fill-12"
   class="st0"
   points="498.9,917 498.9,939.3 477.2,939.3 477.2,1036.1 454.2,1036.1 454.2,939.3 433,939.3 433,917 " /> <path
   id="Fill-14"
   class="st0"
   d="M 578.5,963.6 H 592 c 7.2,0 12.2,-0.9 14.9,-2.8 2.9,-2.2 4.4,-5.8 4.1,-9.4 0.1,-2.5 -0.6,-4.9 -2,-6.9 -1.3,-1.9 -3.2,-3.4 -5.4,-4.2 -4.1,-1.1 -8.3,-1.5 -12.6,-1.3 H 578.4 Z M 555.9,917 h 30.4 c 13.2,0 22.5,1.2 28.1,3.5 5.6,2.4 10.3,6.5 13.4,11.7 3.5,5.8 5.3,12.5 5.1,19.3 0.3,7 -1.7,13.9 -5.7,19.6 -4.3,5.7 -10.2,9.8 -16.9,12 l 28.3,52.9 H 613.7 L 587,985.7 h -8.5 v 50.4 H 555.8 V 917 Z" /> <g
   id="g1"> <path
   id="Fill-16"
   class="st0"
   d="M 696.3,917 H 719 v 77.1 c -0.3,4.8 0.3,9.5 1.8,14.1 1.1,2.8 3.2,5.1 5.8,6.6 2.9,1.7 6.3,2.6 9.7,2.5 3.6,0.1 7.2,-0.8 10.3,-2.7 2.7,-1.6 4.8,-4.1 6,-7 1.4,-5.3 2,-10.8 1.7,-16.2 V 917 h 22.8 v 71 c 0.3,8.4 -0.3,16.7 -2,25 -1.5,5 -4.2,9.6 -7.7,13.4 -3.6,4.1 -8.1,7.3 -13.2,9.4 -5.5,2.2 -11.4,3.3 -17.3,3.1 -7.9,0.2 -15.8,-1.9 -22.6,-6 -6,-3.5 -10.7,-8.7 -13.7,-14.9 -2.7,-6 -4.1,-16.1 -4.1,-30.3 z" /> </g> <polygon
   id="Fill-19"
   class="st0"
   points="845.6,1036.1 845.6,917 904.7,917 904.7,939.1 868.1,939.1 868.1,960.7 904.7,960.7 904.7,982.5 868.1,982.5 868.1,1036.1 " /> <polygon
   id="Fill-21"
   class="st0"
   points="967.4,1036.1 967.4,917 1026.6,917 1026.6,939.1 990,939.1 990,960.7 1026.6,960.7 1026.6,982.5 990,982.5 990,1036.1 " /> <polygon
   id="Fill-23"
   class="st0"
   points="1144.9,1014.5 1144.9,1036.1 1089.2,1036.1 1089.2,917 1111.8,917 1111.8,1014.5 " /> <polygon
   id="Fill-25"
   class="st0"
   points="1267,1013.9 1267,1036.1 1202,1036.1 1202,917 1267,917 1267,939.2 1224.5,939.2 1224.5,960.7 1267,960.7 1267,982.5 1224.5,982.5 1224.5,1013.9 " /> <ellipse
   class="st0"
   cx="849.5"
   cy="482.89999"
   rx="317.29999"
   ry="321"
   id="ellipse1" /> <path
   id="Fill-6"
   class="st1"
   d="m 749.7,767.5 c 13,4.4 56.6,18.6 58.4,4.7 1,-7.6 -22,-15.4 -53.1,-31.9 C 710.7,716.9 670.2,687 634.8,651.5 583.1,600.9 553.4,532 552.1,459.6 549.5,362.5 587.4,284 649.9,233.3 573.5,292.4 527.8,382.6 525.4,479 c -1.9,70.2 17.8,129.4 54.7,183.3 11.5,14.8 24.8,28 39.8,39.2 35.3,26.7 87,51.5 129.8,66" /> <path
   id="Fill-8"
   class="st1"
   d="m 1171.1,409.3 c -19.7,-92.5 -80.8,-157.3 -162.6,-203 62.4,44.5 150.6,139.2 98.7,222.7 -44,66.9 -151,53.8 -209.4,22 -69.5,-37.7 -156.6,-122.6 -70.7,-205.5 55.6,-53.7 232.5,6.5 201.4,86.7 -18.2,46.7 -88.9,36.3 -120.7,13.5 -23.4,-16.8 -43.2,-45.8 -32.7,-75.7 3.4,-9.6 2.9,-24.4 -10.7,-13.5 -10.1,8.2 -15.2,21.6 -16.9,34.1 -14.8,104.6 171.6,185.7 226.8,84.5 C 1103,322.6 1056.5,246.3 998,215 954,191.4 908.2,174.9 852.1,178.9 762.4,185.2 687,241.4 677.6,333.1 c -9.4,91.1 51.5,173.1 123.2,222.2 75.4,51.5 176.8,85.5 269.6,54.8 83.1,-27.4 117.4,-122.9 100.7,-200.8" /> <path
   id="Fill-10"
   class="st2"
   d="m 1054.1,338.5 c 8.9,-60 -45.3,-101.1 -95.3,-119.8 -59,-22 -137,-12.4 -180,36.5 -31.4,35.9 -29.4,88 -13.2,130.2 24.5,63.6 79.9,109.6 144.3,129.5 45.8,14.1 101.1,20.3 147.5,5.4 67.7,-21.8 89.7,-92.3 75.7,-157 -3,-14 -7.6,-27.6 -13.7,-40.5 -8.5,-17.9 -34.6,-54.3 1.4,-10 3.8,4.9 7.3,10.1 10.4,15.4 7.4,12.2 13.3,25.3 17.6,39 19.7,60.3 4.2,130.7 -50.3,167.1 -41.8,27.9 -95,31.2 -143.5,24.2 C 890,549.1 828.6,517.6 786,467.1 747.1,421 720.5,354.8 736.5,294.3 748.2,250 784.2,217 827.2,203.2 c 54.5,-17.6 114.4,-9.4 163.4,19.2 24.6,14.3 47.1,34.1 59.5,60.1 5.7,11.7 8.7,24.5 9,37.5 0.1,5.3 -0.3,10.5 -1.2,15.7 -0.3,1.9 -4.3,7.2 -3.8,2.8" /> </g></svg>
