<svg class="Navbar_navbar__logo__aUDN4 md:hidden md:cursor-pointer cursor-not-allowed ml-6 md:ml-16" fill="none" height="20" width="111" xmlns="http://www.w3.org/2000/svg"><path clip-rule="evenodd" d="M76.183 0h-14.28v2.981h14.28V0zM0 0h14.28v2.982H0V0zm0 11.06v-3.2H14.28v3.2H3.37V20H0v-8.94zm61.903 0v-3.2H76.18v3.2H65.272V20h-3.37v-8.94zM24.73 0h-3.37v20H34.162v-2.93h-9.43V0zm58.42 0h3.37v20h-3.37V0zm23.852 0v15.331L98.452 0h-3.89v20h3.37V4.712L106.517 20H110.374V0h-3.372zM42.366 0l5.087 9.043L52.538 0h3.835l-7.237 12.04V20h-3.372v-7.96L38.528 0h3.838z" fill="#46FDDF" fill-rule="evenodd"></path></svg>