<?xml version="1.0" encoding="UTF-8" standalone="no"?>
<svg
   width="150"
   height="40"
   viewBox="0 0 150 40"
   fill="none"
   version="1.1"
   id="svg3"
   sodipodi:docname="testimonial-card-logo2.svg"
   xml:space="preserve"
   inkscape:version="1.4 (86a8ad7, 2024-10-11)"
   xmlns:inkscape="http://www.inkscape.org/namespaces/inkscape"
   xmlns:sodipodi="http://sodipodi.sourceforge.net/DTD/sodipodi-0.dtd"
   xmlns="http://www.w3.org/2000/svg"
   xmlns:svg="http://www.w3.org/2000/svg"><sodipodi:namedview
     id="namedview3"
     pagecolor="#ffffff"
     bordercolor="#000000"
     borderopacity="0.25"
     inkscape:showpageshadow="2"
     inkscape:pageopacity="0.0"
     inkscape:pagecheckerboard="0"
     inkscape:deskcolor="#d1d1d1"
     inkscape:zoom="3.4125588"
     inkscape:cx="19.486844"
     inkscape:cy="52.306791"
     inkscape:window-width="1920"
     inkscape:window-height="1009"
     inkscape:window-x="-8"
     inkscape:window-y="-8"
     inkscape:window-maximized="1"
     inkscape:current-layer="svg3" /><defs
     id="defs3"><clipPath
       id="clip0_494_3619"><rect
         width="92"
         height="40"
         fill="#ffffff"
         id="rect3"
         x="0"
         y="0" /></clipPath></defs><style
     type="text/css"
     id="style1">
  .st0{fill:#39594D;}
	.st1{fill-rule:evenodd;clip-rule:evenodd;fill:#39594D;}
	.st2{fill-rule:evenodd;clip-rule:evenodd;fill:#D18EE2;}
	.st3{fill:#FF7759;}
 </style><g
     id="g6"
     transform="matrix(0.30182035,0,0,0.30182035,7.0588235,8.6234212)">
  <path
   class="st0"
   d="m 126.6,75 c 11.1,0 20.9,-5.6 24.7,-16.8 0.7,-2.3 -0.3,-3.7 -2.5,-3.7 h -4.2 c -1.9,0 -3.2,0.9 -4.1,2.7 -3.3,6.5 -7.9,8.9 -13.7,8.9 -10.3,0 -16.6,-7.2 -16.6,-19.2 0,-12 6.5,-19.2 16.4,-19.2 6,0 10.9,2.6 14,8.7 1,1.8 2.1,2.7 4.1,2.7 h 4.2 c 2.1,0 3.2,-1.4 2.5,-3.4 C 146.9,23.5 136.8,18.8 126.5,18.8 111,18.8 99.4,30.3 99.4,47 c 0.1,16.5 11.2,28 27.2,28 z M 407,41.9 c 1.4,-9.1 7.6,-14.8 16.1,-14.8 8.5,0 14.8,5.8 15.5,14.8 z M 423.5,75 c 9.9,0 19.7,-4.6 24.5,-15 1.2,-2.5 0.1,-4.2 -2,-4.2 h -4 c -1.9,0 -3.1,0.9 -4.1,2.6 -3.2,5.7 -8.8,8 -14.5,8 -9.7,0 -16.1,-6.6 -16.8,-17.5 H 446 c 2.1,0 3.5,-1.2 3.5,-3.4 -0.4,-16.8 -11.4,-26.9 -26.5,-26.9 -15,0 -27,11 -27,28.2 0,17.3 11.6,28.2 27.5,28.2 z M 361.1,48.2 h 3.5 c 2.1,0 3.3,-1.2 3.6,-3.4 2,-14.5 10.5,-16.4 19.5,-16 1.9,0.1 3.5,-1.4 3.5,-3.3 v -3.3 c 0,-2.1 -1.1,-3.4 -3.2,-3.5 -8,-0.3 -15.1,2.4 -19.2,10.2 -0.2,0.4 -0.9,0.3 -0.9,-0.2 l -0.7,-5.8 c -0.2,-2.1 -1.4,-3.2 -3.5,-3.2 h -16.2 c -1.9,0 -3.4,1.5 -3.4,3.4 v 1.8 c 0,1.9 1.5,3.4 3.4,3.4 h 6.6 c 1.9,0 3.4,1.5 3.4,3.4 v 13.1 c 0.2,1.9 1.8,3.4 3.6,3.4 z m -14.4,25.7 h 33.5 c 2.1,0 3.4,-1.3 3.4,-3.4 v -1.8 c 0,-2.1 -1.3,-3.4 -3.4,-3.4 h -8.6 c -2.1,0 -3.4,-1.3 -3.4,-3.4 V 56 c 0,-2.1 -1.3,-3.4 -3.4,-3.4 h -3.6 c -2.1,0 -3.4,1.3 -3.4,3.4 v 5.9 c 0,2.1 -1.3,3.4 -3.4,3.4 h -7.6 c -2.1,0 -3.4,1.3 -3.4,3.4 v 1.8 c -0.2,2.1 1.1,3.4 3.3,3.4 z m -51.8,-32 c 1.4,-9.1 7.6,-14.8 16.1,-14.8 8.5,0 14.8,5.8 15.5,14.8 z M 311.4,75 c 9.9,0 19.7,-4.6 24.5,-15 1.2,-2.5 0.1,-4.2 -2,-4.2 h -4 c -1.9,0 -3.1,0.9 -4.1,2.6 -3.2,5.7 -8.8,8 -14.5,8 -9.8,0 -16.1,-6.6 -16.8,-17.5 h 39.3 c 2.1,0 3.5,-1.2 3.5,-3.4 C 337,28.7 326.1,18.6 311,18.6 c -15.1,0 -27.1,10.9 -27.1,28.2 0,17.3 11.7,28.2 27.5,28.2 z M 187.5,75 C 203.6,75 215,63.1 215,46.8 215,30.5 203.5,18.6 187.5,18.6 171.4,18.6 160,30.7 160,46.8 c 0,3.7 0.6,7.9 2.6,12.5 1,2.3 2.8,2.6 4.7,1.2 l 3.1,-2.3 c 1.6,-1.2 2,-2.6 1.5,-4.6 -0.9,-2.7 -1.1,-5 -1.1,-7.1 0,-11.2 6.7,-19 16.7,-19 10,0 16.7,7.6 16.7,19.2 0,11.6 -6.6,19.2 -16.5,19.2 -3.4,0 -6.6,-0.6 -10.5,-3.5 -1.6,-1.3 -3.1,-1.5 -4.8,-0.2 L 170,64 c -1.9,1.4 -2.1,3.3 -0.3,4.8 5.6,4.5 12,6.2 17.8,6.2 z m 41.1,-1.1 h 3.5 c 1.9,0 3.4,-1.5 3.4,-3.4 V 44.9 c 0,-10.8 5.8,-17.2 14.8,-17.2 8.1,0 12.9,5.4 12.9,15.2 v 27.6 c 0,1.9 1.5,3.4 3.4,3.4 h 3.6 c 1.9,0 3.4,-1.5 3.4,-3.4 V 41.1 c 0,-14.5 -7.4,-22.5 -19.9,-22.5 -8.5,0 -13.6,3.5 -17.3,8.4 -0.3,0.4 -0.9,0.2 -0.9,-0.3 V 3.4 C 235.5,1.5 233.9,0 232.1,0 h -3.5 c -1.9,0 -3.4,1.5 -3.4,3.4 v 67.1 c 0,1.9 1.5,3.4 3.4,3.4 z"
   id="path1-8">
  </path>
  <g
   id="g5">
   <g
   id="g4">
    <path
   class="st1"
   d="m 24.3,44.7 c 2,0 6,-0.1 11.6,-2.4 C 42.4,39.6 55.2,34.8 64.5,29.8 71,26.3 73.8,21.7 73.8,15.5 73.8,7 66.9,0 58.3,0 h -36 C 10,0 0,10 0,22.3 0,34.6 9.4,44.7 24.3,44.7 Z"
   id="path2-8">
    </path>
    <path
   class="st2"
   d="m 30.4,60 c 0,-6 3.6,-11.5 9.2,-13.8 L 50.9,41.5 C 62.4,36.8 75,45.2 75,57.6 75,67.2 67.2,75 57.6,75 H 45.3 C 37.1,75 30.4,68.3 30.4,60 Z"
   id="path3-2">
    </path>
    <path
   class="st3"
   d="m 12.9,47.6 v 0 C 5.8,47.6 0,53.4 0,60.5 v 1.7 C 0,69.2 5.8,75 12.9,75 v 0 C 20,75 25.8,69.2 25.8,62.1 V 60.4 C 25.7,53.4 20,47.6 12.9,47.6 Z"
   id="path4">
    </path>
   </g>
  </g>
 </g></svg>
