<?xml version="1.0" encoding="UTF-8" standalone="no"?>
<svg
   width="200"
   height="40"
   viewBox="0 0 200 40"
   fill="none"
   version="1.1"
   id="svg3"
   sodipodi:docname="testimonial-card-logo1.svg"
   xml:space="preserve"
   inkscape:version="1.4 (86a8ad7, 2024-10-11)"
   xmlns:inkscape="http://www.inkscape.org/namespaces/inkscape"
   xmlns:sodipodi="http://sodipodi.sourceforge.net/DTD/sodipodi-0.dtd"
   xmlns="http://www.w3.org/2000/svg"
   xmlns:svg="http://www.w3.org/2000/svg"><sodipodi:namedview
     id="namedview3"
     pagecolor="#ffffff"
     bordercolor="#000000"
     borderopacity="0.25"
     inkscape:showpageshadow="2"
     inkscape:pageopacity="0.0"
     inkscape:pagecheckerboard="0"
     inkscape:deskcolor="#d1d1d1"
     inkscape:zoom="7.1329397"
     inkscape:cx="111.38465"
     inkscape:cy="24.604162"
     inkscape:window-width="1920"
     inkscape:window-height="1009"
     inkscape:window-x="-8"
     inkscape:window-y="-8"
     inkscape:window-maximized="1"
     inkscape:current-layer="svg3" /><defs
     id="defs3"><clipPath
       id="clip0_1868_5894"><rect
         width="70.617302"
         height="40"
         fill="#ffffff"
         id="rect3"
         x="0"
         y="0" /></clipPath></defs><style
     type="text/css"
     id="style1">
  .st0{fill:#FF3621;}
	.st1{fill-rule:evenodd;clip-rule:evenodd;fill:#1B3139;}
	.st2{fill:#1B3139;}
 </style><g
     id="g11"
     transform="matrix(0.69766999,0,0,0.69766999,3.2622799,4.7568699)">
  <path
   class="st0"
   d="M 40.1,31.1 V 23.7 L 39.3,23.2 20.1,33.7 1.9,23.7 V 19.4 L 20.1,29.3 40.2,18.4 V 11.1 L 39.4,10.6 20.1,21.2 2.6,11.6 20.1,2 34.2,9.7 35.3,9.1 V 8.3 L 20.1,0 0,10.9 V 12 L 20.1,23 38.3,13 v 4.4 L 20.1,27.4 0.8,16.8 0,17.3 v 7.4 L 20.1,35.6 38.3,25.7 V 30 L 20.1,40 0.8,29.5 0,30 v 1.1 L 20.1,42 Z"
   id="path1-0">
  </path>
  <path
   class="st1"
   d="m 78.3,2.2 v 33.7 0 h -5.4 v -2.5 c 0,-0.2 -0.1,-0.4 -0.3,-0.4 -0.2,-0.1 -0.4,0 -0.5,0.1 -1.9,2.1 -4.7,3.4 -7.8,3.4 -3.2,0 -6.2,-1.3 -8.4,-3.5 -2.2,-2.3 -3.4,-5.4 -3.4,-8.8 0,-6.9 5.2,-12.3 11.8,-12.3 3.1,0 6,1.2 7.8,3.2 0.1,0.1 0.3,0.2 0.5,0.1 0.2,-0.1 0.3,-0.2 0.3,-0.4 V 2.2 Z m -20.4,22 c 0,4.3 3.3,7.6 7.6,7.6 4.3,0 7.6,-3.3 7.6,-7.6 0,-4.3 -3.3,-7.6 -7.6,-7.6 -4.2,0 -7.6,3.3 -7.6,7.6 z"
   id="path2-9">
  </path>
  <path
   class="st1"
   d="m 106.9,12.4 v 23.5 h -5.3 v -2.5 c 0,-0.2 -0.1,-0.4 -0.3,-0.4 -0.2,-0.1 -0.4,0 -0.5,0.1 -1.9,2.2 -4.7,3.4 -7.8,3.4 -6.6,0 -11.8,-5.4 -11.8,-12.3 0,-6.9 5.2,-12.3 11.8,-12.3 3.2,0 6,1.1 7.8,3.2 0.1,0.1 0.3,0.2 0.5,0.1 0.2,-0.1 0.3,-0.2 0.3,-0.4 V 12.4 Z M 86.6,24.2 c 0,4.3 3.3,7.6 7.6,7.6 4.3,0 7.6,-3.3 7.6,-7.6 0,-4.3 -3.3,-7.6 -7.6,-7.6 -4.2,0 -7.6,3.3 -7.6,7.6 z"
   id="path3-4">
  </path>
  <path
   class="st1"
   d="m 152.4,12.4 v 23.5 h -5.3 v -2.5 c 0,-0.2 -0.1,-0.4 -0.3,-0.4 -0.2,-0.1 -0.4,0 -0.5,0.1 -1.9,2.2 -4.7,3.4 -7.8,3.4 -6.6,0 -11.8,-5.4 -11.8,-12.3 0,-6.9 5.2,-12.3 11.8,-12.3 3.2,0 6,1.1 7.8,3.2 0.1,0.1 0.3,0.2 0.5,0.1 0.2,-0.1 0.3,-0.2 0.3,-0.4 v -2.4 z m -20.3,11.8 c 0,4.3 3.3,7.6 7.6,7.6 4.3,0 7.6,-3.3 7.6,-7.6 0,-4.3 -3.3,-7.6 -7.6,-7.6 -4.3,0 -7.6,3.3 -7.6,7.6 z"
   id="path4">
  </path>
  <path
   class="st1"
   d="m 162.4,33.1 c -0.1,0 -0.1,0 -0.2,0 -0.2,0.1 -0.3,0.2 -0.3,0.4 v 2.4 h -5.4 V 2.2 h 5.4 v 12.7 c 0,0.2 0.1,0.4 0.3,0.4 0.2,0.1 0.4,0 0.5,-0.1 1.9,-2.1 4.7,-3.4 7.8,-3.4 3.2,0 6.2,1.3 8.4,3.5 2.2,2.3 3.4,5.4 3.4,8.8 0,6.9 -5.2,12.3 -11.8,12.3 -3.1,0 -6,-1.2 -7.8,-3.2 -0.1,0 -0.2,-0.1 -0.3,-0.1 z m 6.9,-16.5 c -4.3,0 -7.6,3.3 -7.6,7.6 0,4.3 3.3,7.6 7.6,7.6 4.3,0 7.6,-3.3 7.6,-7.6 0,-4.3 -3.4,-7.6 -7.6,-7.6 z"
   id="path5">
  </path>
  <path
   class="st2"
   d="m 197.8,17.2 c 0.5,0 1,0 1.3,0.1 V 12 c -0.2,0 -0.5,-0.1 -0.9,-0.1 -2.8,0 -5.4,1.4 -6.7,3.6 -0.1,0.2 -0.3,0.3 -0.5,0.2 -0.2,-0.1 -0.3,-0.2 -0.3,-0.4 v -2.9 h -5.3 v 23.5 h 5.4 V 25.6 c -0.2,-5.2 2.6,-8.4 7,-8.4 z"
   id="path6">
  </path>
  <rect
   x="202.39999"
   y="12.4"
   class="st2"
   width="5.4000001"
   height="23.5"
   id="rect6">
  </rect>
  <path
   class="st2"
   d="m 205.1,2.2 c -1.8,0 -3.3,1.4 -3.3,3.2 0,1.8 1.5,3.2 3.3,3.2 1.8,0 3.3,-1.4 3.3,-3.2 0,-1.7 -1.5,-3.2 -3.3,-3.2 z"
   id="path7">
  </path>
  <path
   class="st2"
   d="m 223.8,11.9 c -7.4,0 -12.8,5.2 -12.8,12.3 0,3.5 1.3,6.6 3.6,8.8 2.3,2.2 5.6,3.5 9.2,3.5 3,0 5.4,-0.6 9.8,-3.7 l -3,-3.1 c -2.2,1.4 -4.2,2.1 -6.2,2.1 -4.5,0 -7.9,-3.3 -7.9,-7.6 0,-4.3 3.4,-7.6 7.9,-7.6 2.1,0 4.1,0.7 6.1,2.1 l 3.4,-3.1 c -4.1,-3.4 -7.7,-3.7 -10.1,-3.7 z"
   id="path8">
  </path>
  <path
   class="st2"
   d="m 242.9,25.6 c 0.1,-0.1 0.2,-0.1 0.3,-0.1 v 0 c 0.1,0 0.2,0.1 0.3,0.2 l 8.6,10.3 h 6.6 L 247.6,23 c -0.2,-0.2 -0.1,-0.4 0,-0.6 l 10.2,-9.9 h -6.5 l -8.8,8.5 c -0.1,0.1 -0.3,0.2 -0.5,0.1 -0.2,-0.1 -0.3,-0.2 -0.3,-0.4 V 2.2 h -5.4 v 33.7 h 5.4 v -9.1 c 0,-0.1 0.1,-0.2 0.1,-0.3 z"
   id="path9">
  </path>
  <path
   class="st2"
   d="m 267.6,36.5 c 4.4,0 8.9,-2.6 8.9,-7.5 0,-3.2 -2.1,-5.4 -6.4,-6.8 l -2.9,-0.9 c -2,-0.6 -2.9,-1.5 -2.9,-2.8 0,-1.4 1.3,-2.4 3.2,-2.4 1.8,0 3.4,1.1 4.4,3.1 l 4.3,-2.2 c -1.6,-3.2 -4.9,-5.1 -8.7,-5.1 -4.8,0 -8.3,3 -8.3,7.1 0,3.3 2,5.5 6.1,6.7 l 3,0.9 c 2.1,0.6 3,1.4 3,2.8 0,2 -1.9,2.7 -3.5,2.7 -2.2,0 -4.1,-1.4 -5.1,-3.6 l -4.4,2.2 c 1.4,3.6 5,5.8 9.3,5.8 z"
   id="path10">
  </path>
  <path
   class="st2"
   d="m 121.8,36.3 c 1.7,0 3.2,-0.1 4.1,-0.3 v -4.5 c -0.7,0.1 -1.9,0.2 -2.7,0.2 -2.2,0 -3.8,-0.4 -3.8,-4.9 v -9.6 c 0,-0.2 0.2,-0.4 0.5,-0.4 h 5.2 v -4.2 h -5.2 c -0.3,0 -0.5,-0.2 -0.5,-0.4 v -7 h -5.3 V 12 c 0,0.2 -0.2,0.4 -0.5,0.4 h -3.7 v 4.2 h 3.7 c 0.3,0 0.5,0.2 0.5,0.4 v 10.9 c -0.1,8.4 5.6,8.4 7.7,8.4 z"
   id="path11">
  </path>
 </g></svg>
