<?xml version="1.0" encoding="UTF-8" standalone="no"?>
<svg
   width="115"
   height="40"
   viewBox="0 0 115 40"
   fill="none"
   version="1.1"
   id="svg1"
   sodipodi:docname="testimonial-card-logo3.svg"
   xml:space="preserve"
   inkscape:version="1.4 (86a8ad7, 2024-10-11)"
   xmlns:inkscape="http://www.inkscape.org/namespaces/inkscape"
   xmlns:sodipodi="http://sodipodi.sourceforge.net/DTD/sodipodi-0.dtd"
   xmlns="http://www.w3.org/2000/svg"
   xmlns:svg="http://www.w3.org/2000/svg"><defs
     id="defs1" /><sodipodi:namedview
     id="namedview1"
     pagecolor="#ffffff"
     bordercolor="#000000"
     borderopacity="0.25"
     inkscape:showpageshadow="2"
     inkscape:pageopacity="0.0"
     inkscape:pagecheckerboard="0"
     inkscape:deskcolor="#d1d1d1"
     inkscape:zoom="3.8608696"
     inkscape:cx="88.710585"
     inkscape:cy="-7.7702703"
     inkscape:window-width="1147"
     inkscape:window-height="1032"
     inkscape:window-x="769"
     inkscape:window-y="55"
     inkscape:window-maximized="0"
     inkscape:current-layer="svg1" /><g
     style="fill:none"
     id="g1"
     transform="translate(2.731919,10.490991)"><path
       clip-rule="evenodd"
       d="m 76.183,0 h -14.28 v 2.981 h 14.28 z M 0,0 H 14.28 V 2.982 H 0 Z m 0,11.06 v -3.2 h 14.28 v 3.2 H 3.37 V 20 H 0 Z m 61.903,0 V 7.86 H 76.18 v 3.2 H 65.272 V 20 h -3.37 V 11.06 Z M 24.73,0 h -3.37 v 20 h 12.802 v -2.93 h -9.43 V 0 Z m 58.42,0 h 3.37 v 20 h -3.37 z m 23.852,0 V 15.331 L 98.452,0 h -3.89 v 20 h 3.37 V 4.712 L 106.517,20 h 3.857 V 0 Z M 42.366,0 47.453,9.043 52.538,0 h 3.835 L 49.136,12.04 V 20 H 45.764 V 12.04 L 38.528,0 Z"
       fill="#46fddf"
       fill-rule="evenodd"
       id="path1" /></g></svg>
